<?xml version="1.0" standalone="no"?>
<!DOCTYPE svg PUBLIC "-//W3C//DTD SVG 20010904//EN"
 "http://www.w3.org/TR/2001/REC-SVG-20010904/DTD/svg10.dtd">
<svg version="1.0" xmlns="http://www.w3.org/2000/svg"
 width="512.000000pt" height="512.000000pt" viewBox="0 0 512.000000 512.000000"
 preserveAspectRatio="xMidYMid meet">

<g transform="translate(0.000000,512.000000) scale(0.100000,-0.100000)"
fill="#000000" stroke="none">
<path d="M1528 5075 c-455 -207 -876 -589 -1147 -1038 -56 -93 -162 -310 -204
-417 -68 -174 -130 -426 -158 -645 -20 -150 -17 -524 4 -665 75 -489 254 -912
546 -1290 84 -109 342 -367 451 -451 378 -292 801 -471 1290 -546 141 -21 515
-24 665 -4 219 28 471 90 645 158 191 74 424 200 586 314 372 264 698 655 873
1045 46 102 47 113 26 154 -35 67 -90 67 -210 -1 -267 -151 -561 -254 -870
-306 -154 -25 -584 -25 -730 0 -410 72 -763 227 -1080 475 -94 74 -298 281
-372 379 -246 322 -395 669 -460 1068 -24 147 -28 476 -9 635 41 335 142 644
310 945 73 131 74 185 6 220 -42 22 -54 19 -162 -30z m-168 -392 c-206 -493
-258 -1069 -144 -1578 107 -473 331 -882 669 -1220 472 -472 1099 -729 1772
-727 374 2 701 66 1026 202 43 18 80 30 82 28 3 -3 -21 -42 -53 -89 -444 -651
-1134 -1046 -1898 -1088 -641 -34 -1241 163 -1724 567 -859 719 -1124 1914
-652 2935 156 336 432 679 727 904 83 63 218 153 223 148 2 -2 -10 -39 -28
-82z"/>
<path d="M663 1830 c-25 -10 -49 -43 -58 -80 -8 -33 82 -218 120 -248 56 -44
132 -17 156 55 11 34 9 41 -41 141 -66 130 -107 160 -177 132z"/>
<path d="M950 1373 c-72 -37 -78 -98 -18 -175 59 -74 208 -221 303 -297 383
-309 909 -501 1369 -501 75 0 88 3 114 25 36 30 45 69 27 112 -21 50 -47 60
-180 67 -250 13 -502 72 -726 168 -252 109 -449 246 -665 464 -77 79 -151 145
-165 149 -14 3 -38 -2 -59 -12z"/>
</g>
</svg>
