<?xml version="1.0" encoding="UTF-8"?>
<svg version="1.1" xmlns="http://www.w3.org/2000/svg" width="256" height="256">
<path d="M0 0 C3.125 0.4375 3.125 0.4375 5.01171875 2.4609375 C8.02832515 6.70983598 10.68002217 11.15598427 13.32617188 15.64257812 C16.57643351 20.99269967 20.12666998 25.10996267 26.125 27.4375 C37.78941827 29.47787038 46.62973937 23.89037863 56.125 17.9375 C59.70038009 16.14980996 61.36176947 16.21226215 65.125 17.4375 C67.69145666 20.00395666 67.38705222 21.03702863 67.43359375 24.6015625 C67.45873047 25.64183594 67.48386719 26.68210937 67.50976562 27.75390625 C67.54454746 29.93614448 67.5758744 32.11844089 67.60351562 34.30078125 C67.76534039 40.7185146 68.47904 45.57568091 71.125 51.4375 C71.434375 52.22125 71.74375 53.005 72.0625 53.8125 C74.72408204 57.88315489 81.61458842 59.35000279 86.125 60.4375 C91.11635218 60.93955816 96.11258945 60.92098516 101.125 60.96484375 C102.60613281 60.99771484 102.60613281 60.99771484 104.1171875 61.03125 C105.00776855 61.03833984 105.89834961 61.04542969 106.81591797 61.05273438 C109.125 61.4375 109.125 61.4375 110.93994141 62.76464844 C112.125 64.4375 112.125 64.4375 112.09375 67.609375 C110.93720891 72.17957768 109.04176845 75.67701118 106.625 79.6875 C105.7999451 81.08728355 104.97694134 82.48827864 104.15625 83.890625 C103.79080078 84.50067383 103.42535156 85.11072266 103.04882812 85.73925781 C100.21988357 90.9396115 100.51171345 96.69889014 101.125 102.4375 C104.41107061 112.39630583 115.61364014 117.27824945 124.09375 122.17578125 C126.125 123.4375 126.125 123.4375 128.125 125.4375 C128.5625 128.3125 128.5625 128.3125 128.125 131.4375 C123.64684194 135.61307981 118.17091035 138.54168961 112.91992188 141.63867188 C107.11229062 145.16687603 103.22316133 148.76722592 101.125 155.4375 C99.07865428 166.57469132 105.04273607 175.35353198 110.5625 184.5 C112.17611587 187.53359783 112.77917564 189.07316811 112.125 192.4375 C110.46139016 194.65029507 109.57657106 195.36225407 106.81591797 195.82226562 C105.92533691 195.82935547 105.03475586 195.83644531 104.1171875 195.84375 C103.12976563 195.86566406 102.14234375 195.88757813 101.125 195.91015625 C99.578125 195.92369141 99.578125 195.92369141 98 195.9375 C89.3521671 196.01491027 81.17784312 196.08949916 74.25 201.8125 C69.64060305 207.50646093 68.03343829 211.71220492 67.94921875 218.97265625 C67.92537109 220.02904297 67.90152344 221.08542969 67.87695312 222.17382812 C67.8339125 224.39498512 67.80270127 226.61640222 67.78320312 228.83789062 C67.74163086 230.42053711 67.74163086 230.42053711 67.69921875 232.03515625 C67.68463623 232.99945557 67.67005371 233.96375488 67.6550293 234.95727539 C67.125 237.4375 67.125 237.4375 65.26025391 239.27709961 C63.125 240.4375 63.125 240.4375 60.38671875 240.40625 C56.1727698 239.15468193 52.69960676 237.17742716 48.9375 234.9375 C47.52864033 234.11236551 46.11853169 233.28935891 44.70703125 232.46875 C44.09061768 232.10330078 43.4742041 231.73785156 42.83911133 231.36132812 C37.43028998 228.44621917 30.68607421 228.4834238 24.8359375 230.05078125 C15.83641207 233.99458873 11.67117312 243.64137359 6.859375 251.6796875 C5.125 254.4375 5.125 254.4375 3.125 256.4375 C0.25 256.875 0.25 256.875 -2.875 256.4375 C-7.05057981 251.95934194 -9.97918961 246.48341035 -13.07617188 241.23242188 C-16.60437603 235.42479062 -20.20472592 231.53566133 -26.875 229.4375 C-38.01219132 227.39115428 -46.79103198 233.35523607 -55.9375 238.875 C-58.97109783 240.48861587 -60.51066811 241.09167564 -63.875 240.4375 C-66.02959949 238.79940516 -66.79198648 237.9158812 -67.25976562 235.22021484 C-67.26685547 234.37152832 -67.27394531 233.5228418 -67.28125 232.6484375 C-67.30316406 231.70613281 -67.32507813 230.76382813 -67.34765625 229.79296875 C-67.35667969 228.80941406 -67.36570313 227.82585937 -67.375 226.8125 C-67.44452065 219.41351626 -68.15824564 213.34156215 -70.875 206.4375 C-71.184375 205.468125 -71.49375 204.49875 -71.8125 203.5 C-73.86440859 199.51688332 -79.18712934 198.39670526 -83.26660156 197.06640625 C-89.02117367 195.67893173 -94.98755359 195.96167141 -100.875 195.91015625 C-101.86242187 195.88824219 -102.84984375 195.86632812 -103.8671875 195.84375 C-105.20305908 195.83311523 -105.20305908 195.83311523 -106.56591797 195.82226562 C-108.875 195.4375 -108.875 195.4375 -110.68994141 194.11035156 C-111.875 192.4375 -111.875 192.4375 -111.84375 189.265625 C-110.68720891 184.69542232 -108.79176845 181.19798882 -106.375 177.1875 C-105.5499451 175.78771645 -104.72694134 174.38672136 -103.90625 172.984375 C-103.35807617 172.06930176 -103.35807617 172.06930176 -102.79882812 171.13574219 C-99.86851067 165.74903811 -99.92558037 158.98119363 -101.48828125 153.1484375 C-105.43208873 144.14891207 -115.07887359 139.98367312 -123.1171875 135.171875 C-125.875 133.4375 -125.875 133.4375 -127.875 131.4375 C-128.3125 128.5625 -128.3125 128.5625 -127.875 125.4375 C-123.39684194 121.26192019 -117.92091035 118.33331039 -112.66992188 115.23632812 C-107.31980033 111.98606649 -103.20253733 108.43583002 -100.875 102.4375 C-98.82375485 90.71091267 -104.51556672 82.0016762 -110.3125 72.375 C-111.92611587 69.34140217 -112.52917564 67.80183189 -111.875 64.4375 C-110.21139016 62.22470493 -109.32657106 61.51274593 -106.56591797 61.05273438 C-105.67533691 61.04564453 -104.78475586 61.03855469 -103.8671875 61.03125 C-102.87976563 61.00933594 -101.89234375 60.98742188 -100.875 60.96484375 C-99.84375 60.95582031 -98.8125 60.94679687 -97.75 60.9375 C-88.70208476 60.85650843 -80.85410626 59.99453729 -72.875 55.4375 C-71.72479475 53.19006244 -71.72479475 53.19006244 -70.875 50.4375 C-70.37097656 49.47714844 -69.86695313 48.51679687 -69.34765625 47.52734375 C-66.69119027 41.39165529 -67.40207228 34.45164351 -67.34765625 27.890625 C-67.32574219 26.8490625 -67.30382812 25.8075 -67.28125 24.734375 C-67.27416016 23.78916992 -67.26707031 22.84396484 -67.25976562 21.87011719 C-66.875 19.4375 -66.875 19.4375 -65.54785156 17.60449219 C-63.875 16.4375 -63.875 16.4375 -60.703125 16.46875 C-56.13292232 17.62529109 -52.63548882 19.52073155 -48.625 21.9375 C-47.22521645 22.7625549 -45.82422136 23.58555866 -44.421875 24.40625 C-43.50680176 24.95442383 -43.50680176 24.95442383 -42.57324219 25.51367188 C-37.3728885 28.34261643 -31.61360986 28.05078655 -25.875 27.4375 C-15.91619417 24.15142939 -11.03425055 12.94885986 -6.13671875 4.46875 C-4.29623339 1.50573951 -3.52263924 0.5360538 0 0 Z M-0.875 17.4375 C-2.09430112 19.25748624 -3.24960455 21.12049735 -4.375 23 C-9.08797309 30.24480618 -14.29681511 34.45074052 -22.1875 37.875 C-34.94860806 39.8216097 -44.49764054 37.27624083 -55.875 31.4375 C-55.97296875 32.56027344 -56.0709375 33.68304688 -56.171875 34.83984375 C-57.35048563 47.12401257 -59.23679037 56.86604367 -68.875 65.4375 C-77.05240421 71.59791541 -87.03388392 71.71924861 -96.875 72.4375 C-96.45347656 73.34113281 -96.03195313 74.24476562 -95.59765625 75.17578125 C-95.04980469 76.35527344 -94.50195312 77.53476563 -93.9375 78.75 C-93.39222656 79.92175781 -92.84695312 81.09351563 -92.28515625 82.30078125 C-88.63947042 90.41015998 -88.38391008 100.54603792 -91.5 108.9375 C-95.82982446 118.0016654 -102.33160229 122.43611593 -110.875 127.4375 C-109.58408064 131.31025808 -108.1812239 131.64003676 -104.6875 133.625 C-99.3944706 136.89281063 -95.95979622 140.04435287 -92.875 145.4375 C-92.53726563 146.01757812 -92.19953125 146.59765625 -91.8515625 147.1953125 C-88.33730757 154.64295367 -88.60006319 164.21132059 -90.9296875 171.93359375 C-92.13399707 174.84460239 -93.42640249 177.64126784 -94.875 180.4375 C-95.25914063 181.20707031 -95.64328125 181.97664062 -96.0390625 182.76953125 C-96.31492187 183.31996094 -96.59078125 183.87039062 -96.875 184.4375 C-95.19083984 184.58445313 -95.19083984 184.58445313 -93.47265625 184.734375 C-81.15727526 185.9159803 -71.50974568 187.82375821 -62.875 197.4375 C-57.18100778 205.86866355 -56.50024133 215.56526847 -55.875 225.4375 C-55.05515625 225.01597656 -54.2353125 224.59445313 -53.390625 224.16015625 C-52.31296875 223.61230469 -51.2353125 223.06445312 -50.125 222.5 C-49.05765625 221.95472656 -47.9903125 221.40945312 -46.890625 220.84765625 C-39.47422951 217.37962675 -29.99965263 217.04446062 -22.1015625 219.19140625 C-19.91202054 220.14419328 -17.91101345 221.1927943 -15.875 222.4375 C-14.2353125 223.3965625 -14.2353125 223.3965625 -12.5625 224.375 C-7.32134291 228.39728335 -4.25022375 233.86284766 -0.875 239.4375 C2.88893718 238.18285427 3.10375126 237.10241501 4.9375 233.6875 C9.66623244 225.53130794 16.26222168 221.39175944 25.125 218.4375 C34.10332273 217.78081213 41.15634621 218.05767007 49.125 222.4375 C51.44431931 223.47353793 53.7822489 224.45478349 56.125 225.4375 C56.25455078 223.66246094 56.25455078 223.66246094 56.38671875 221.8515625 C57.47657305 208.86401757 59.44676714 200.0749742 69.55078125 191.12890625 C75.6356801 187.13078607 81.97558955 185.92529093 89.125 185.25 C89.89972656 185.16814453 90.67445313 185.08628906 91.47265625 185.00195312 C93.35580183 184.80433908 95.24028577 184.61954626 97.125 184.4375 C96.70347656 183.53386719 96.28195313 182.63023437 95.84765625 181.69921875 C95.29980469 180.51972656 94.75195312 179.34023437 94.1875 178.125 C93.64222656 176.95324219 93.09695312 175.78148437 92.53515625 174.57421875 C88.88947042 166.46484002 88.63391008 156.32896208 91.75 147.9375 C96.07982446 138.8733346 102.58160229 134.43888407 111.125 129.4375 C109.87409424 125.68478271 108.84508418 125.50080339 105.4375 123.6875 C98.11979866 119.42840992 93.71329445 114.38833438 90.82421875 106.3671875 C88.22645618 95.48270746 90.06306168 86.20857487 95.125 76.4375 C95.50914062 75.66792969 95.89328125 74.89835937 96.2890625 74.10546875 C96.56492188 73.55503906 96.84078125 73.00460938 97.125 72.4375 C95.94164062 72.35113281 94.75828125 72.26476562 93.5390625 72.17578125 C82.07898069 71.21410454 73.21656667 69.85771685 64.75 61.4375 C57.75195815 52.91261265 56.510428 42.13312691 56.125 31.4375 C55.23296875 31.85902344 54.3409375 32.28054687 53.421875 32.71484375 C52.25140625 33.26269531 51.0809375 33.81054688 49.875 34.375 C48.71484375 34.92027344 47.5546875 35.46554688 46.359375 36.02734375 C38.60696294 39.40732051 29.53240762 39.72007485 21.375 37.375 C12.4146043 33.81381709 7.22518772 27.83570206 2.53515625 19.59765625 C2.06980469 18.88480469 1.60445313 18.17195313 1.125 17.4375 C0.465 17.4375 -0.195 17.4375 -0.875 17.4375 Z " fill="#FFDE20" transform="translate(127.875,-0.4375)"/>
<path d="M0 0 C0.92039062 0.44214844 1.84078125 0.88429688 2.7890625 1.33984375 C21.94839727 11.081421 36.16168114 27.72034906 42.9375 48 C49.75216338 69.43731395 47.50098482 93.23796521 37.41381836 113.14526367 C26.7696878 132.77241359 8.21279075 146.61439366 -13 153 C-34.62401614 158.46381507 -56.59572323 156.21225395 -76.171875 145.21875 C-96.45133133 132.3996118 -109.67468902 114.24054741 -115.23828125 90.859375 C-119.42512555 69.64603055 -115.93488027 48.17490817 -104.3125 29.8125 C-90.25398278 10.00277119 -71.97101196 -2.26887922 -48 -7 C-31.57942936 -9.46631575 -14.91792857 -7.50170906 0 0 Z M-87 25 C-100.81951736 42.18802472 -107.75077996 61.42059503 -105.375 83.625 C-102.66350954 100.94238572 -93.61421403 119.22325219 -79.23876953 129.71557617 C-61.81042668 141.77022229 -42.61471526 147.39155068 -21.40625 143.78515625 C-6.46514438 140.34116287 6.20603763 132.75513517 17 122 C17.55171875 121.47148437 18.1034375 120.94296875 18.671875 120.3984375 C30.97267703 107.50243537 36.14535744 88.33387531 36 71 C34.84094581 51.91700071 26.37790156 35.42619723 13 22 C12.20722656 21.17242187 12.20722656 21.17242187 11.3984375 20.328125 C-1.9847507 7.56262241 -19.92399533 3.36368296 -37.76464844 3.53125 C-56.22098829 4.06284575 -73.95529573 11.71070753 -87 25 Z " fill="#FFDE21" transform="translate(163,54)"/>
<path d="M0 0 C3.7183974 0.71507642 4.14729109 1.2414174 6.375 4.125 C7.36236678 5.60605017 8.32181858 7.10615767 9.25 8.625 C9.62125 9.2025 9.9925 9.78 10.375 10.375 C16.38668282 20.89544494 18.54513744 34.72780726 17.25 46.625 C16.64208912 48.64363538 15.99088271 50.65128846 15.25 52.625 C11.785 53.12 11.785 53.12 8.25 53.625 C5.52338569 50.95504261 5.25082308 49.64591468 5.09765625 45.75390625 C5.16159493 44.23142908 5.23362358 42.70927639 5.3125 41.1875 C5.59775104 29.46627525 2.80394439 20.64817121 -3.546875 10.78515625 C-5.14115265 7.92270319 -5.3907098 5.82854902 -4.75 2.625 C-2.75 0.625 -2.75 0.625 0 0 Z " fill="#FFDD20" transform="translate(172.75,88.375)"/>
<path d="M0 0 C0.75 2.75 0.75 2.75 1 6 C-0.625 8.4375 -0.625 8.4375 -3 10 C-6.39154295 9.83849795 -7.58296757 9.41703243 -10 7 C-9.75 3.4375 -9.75 3.4375 -9 0 C-5.93109813 -1.53445094 -3.29905734 -0.54984289 0 0 Z " fill="#FFDD20" transform="translate(164,78)"/>
</svg>
