<svg width="246" height="66" viewBox="0 0 246 66" fill="none" xmlns="http://www.w3.org/2000/svg">
<rect x="1" width="61" height="13" fill="#23525B"/>
<path d="M0 22H30L35 28.5L40 35H0V22Z" fill="#23525B"/>
<rect x="40" y="35" width="31" height="13" transform="rotate(90 40 35)" fill="#23525B"/>
<path d="M88.18 62.36V58.65C85.8933 61.6367 82.6033 63.13 78.31 63.13C73.6433 63.13 70.19 61.8233 67.95 59.21C66.3633 57.2967 65.57 54.9633 65.57 52.21C65.57 42.69 72.57 37.93 86.57 37.93H87.62V36.67C87.62 32.0967 85.4967 29.81 81.25 29.81C77.4233 29.81 73.6433 30.8133 69.91 32.82V25.96C73.4567 24.14 77.3767 23.23 81.67 23.23C86.15 23.23 89.4167 24.28 91.47 26.38C93.6633 28.6667 94.76 32.2133 94.76 37.02V53.33C94.76 57.6233 94.9 60.6333 95.18 62.36H88.18ZM87.62 44.44H86.15C82.51 44.44 79.71 44.7667 77.75 45.42C74.6233 46.4467 73.06 48.4767 73.06 51.51C73.06 54.87 74.9967 56.55 78.87 56.55C84.7033 56.55 87.62 53.0033 87.62 45.91V44.44ZM125.205 31.7C122.125 30.3933 119.208 29.74 116.455 29.74C112.581 29.74 110.645 31.2567 110.645 34.29C110.645 35.6433 112.115 37.0433 115.055 38.49C119.301 40.59 122.031 42.13 123.245 43.11C126.138 45.49 127.585 48.43 127.585 51.93C127.585 55.85 126.021 58.8133 122.895 60.82C120.421 62.36 117.458 63.13 114.005 63.13C109.805 63.13 106.165 62.5 103.085 61.24L103.785 54.03C107.191 55.71 110.528 56.55 113.795 56.55C115.661 56.55 117.201 56.06 118.415 55.08C119.535 54.1933 120.095 53.0267 120.095 51.58C120.095 49.7133 118.671 47.9867 115.825 46.4C113.165 44.9533 111.181 43.8567 109.875 43.11C108.568 42.3633 107.891 41.9667 107.845 41.92C104.998 39.7733 103.575 37.1367 103.575 34.01C103.575 30.1833 104.998 27.3367 107.845 25.47C110.131 23.9767 112.908 23.23 116.175 23.23C119.815 23.23 123.081 23.86 125.975 25.12L125.205 31.7ZM168.313 62.01H158.513L143.393 45.84V62.01H135.903V6.29H143.393V35.97L156.903 23.23H166.563L148.083 40.66L168.313 62.01ZM182.693 62.29H175.203V23.09H182.693V62.29ZM182.693 16.37H175.203V7.62H182.693V16.37ZM222.576 45.84H198.986C199.126 49.2 200.036 51.8133 201.716 53.68C203.443 55.6867 205.823 56.69 208.856 56.69C213.056 56.69 216.766 55.78 219.986 53.96V61.03C216.253 62.43 212.473 63.13 208.646 63.13C202.626 63.13 198.146 61.2167 195.206 57.39C192.64 53.9833 191.356 49.2233 191.356 43.11C191.356 37.23 192.78 32.4467 195.626 28.76C198.473 25.0733 202.3 23.23 207.106 23.23C212.473 23.23 216.486 25.1433 219.146 28.97C221.433 32.2367 222.576 36.5533 222.576 41.92V45.84ZM214.946 39.19C214.946 36.5767 214.27 34.3833 212.916 32.61C211.516 30.7433 209.673 29.81 207.386 29.81C205.053 29.81 203.07 30.7667 201.436 32.68C199.803 34.5933 198.986 36.7633 198.986 39.19H214.946Z" fill="black"/>
</svg>
